<?xml version="1.0" encoding="utf-8"?>
<!-- Generator: Adobe Illustrator 22.0.0, SVG Export Plug-In . SVG Version: 6.00 Build 0)  -->
<svg version="1.0" id="Layer_1" xmlns="http://www.w3.org/2000/svg" xmlns:xlink="http://www.w3.org/1999/xlink" x="0px" y="0px"
	 viewBox="0 0 5000 4000" style="enable-background:new 0 0 5000 4000;" xml:space="preserve">
<style type="text/css">
	.st0{fill:#333333;}
</style>
<g>
	<g>
		<g>
			<path class="st0" d="M1695.7,1832.7c0-12.9-5-24.9-14-33.9c-9-9-21.1-14-33.9-14c-12.9,0-24.9,5-33.9,14l-95.1,95.1
				c-18.7,18.7-18.7,49.2,0,67.9c18.7,18.7,49.2,18.7,67.9,0l95.1-95.1C1690.7,1857.7,1695.7,1845.6,1695.7,1832.7z"/>
		</g>
		<g>
			<path class="st0" d="M1584.2,1766.2c0-12.2-4.7-23.6-13.2-32.1c-8.5-8.5-19.9-13.2-32.1-13.2c-12.2,0-23.6,4.7-32.1,13.2
				l-83.4,83.4c-8.5,8.5-13.2,19.9-13.2,32.1c0,12.2,4.7,23.6,13.2,32.1c17.7,17.7,46.5,17.7,64.2,0l83.4-83.4
				C1579.5,1789.7,1584.2,1778.4,1584.2,1766.2z"/>
		</g>
		<g>
			<path class="st0" d="M1734.5,1897.7c-5.4-5.4-12.5-8.3-20.2-8.3s-14.8,3-20.2,8.3l-62.1,62.1c-5.4,5.4-8.3,12.5-8.3,20.2
				c0,7.7,2.9,14.8,8.3,20.2c5.4,5.4,12.5,8.3,20.2,8.3c7.7,0,14.8-3,20.2-8.3l62.1-62.1C1745.7,1926.9,1745.7,1908.8,1734.5,1897.7
				z"/>
		</g>
		<g>
			<path class="st0" d="M1975.7,869.9h-486.5c-267.5,0-486.4,218.9-486.4,486.4v486.5c0,267.5,218.9,486.4,486.4,486.4h486.5
				c267.5,0,486.4-218.9,486.4-486.4v-486.5C2462.2,1088.8,2243.3,869.9,1975.7,869.9z M2212.6,1652.7c-2.7,1.8-5.6,3.5-8.8,4.8
				l-71.3,38.2c4.8,21.1,0.3,43.6-12.1,61c-13.8,19.3-36,31.1-59.8,31.7c7.1,22.6,3.3,47.5-10.5,66.8
				c-14.2,19.9-37.3,31.7-61.9,31.7c-1.9,0-3.7-0.1-5.6-0.2c0.3,1.2,0.5,2.5,0.7,3.7c3.3,20-1.3,40.1-13,56.6
				c-14.2,19.9-37.3,31.7-61.9,31.7c-15.9,0-31.1-4.9-44-14.1l-0.9-0.7c0,15-4.6,29.4-13.4,41.7c-13.5,18.9-35.6,30.3-59.1,30.3
				c-15.1,0-29.7-4.6-42-13.4l-32.5-23.2l-22.4,22.4c-11.2,11.2-26,17.3-41.9,17.3c-15.9,0-30.7-6.1-41.9-17.3
				c-7.6-7.6-13-17.2-15.5-27.6c-12.5,7.9-27.2,12.2-42.1,12.2c-21,0-40.8-8.2-55.7-23c-15.9-15.9-24.1-37.9-22.8-60.2
				c-6.1,1.6-12.4,2.4-18.8,2.4c-20.4,0-39.5-7.9-53.8-22.3c-14.3-14.3-22.2-33.4-22.2-53.8c0-1.9,0.1-3.9,0.2-5.9
				c-3.3,0.5-6.7,0.8-10.1,0.8c-17.3,0-33.5-6.7-45.6-18.8c-12.1-12.1-18.8-28.3-18.8-45.6s6.7-33.5,18.8-45.6l9-9l-100.7-72
				l-134.1-82.8l231.3-374.6l144.3,89.1c7.6,4.7,13.7,11.1,18,18.8c33.2-11.3,128.1-36,237.8,2.8c21.3-12.9,104.2-56.6,199.1-17
				c3.8-9.9,10.5-18.5,19.3-24.5l154.1-105.3l264.7,387.5L2212.6,1652.7z"/>
		</g>
		<g>
			<path class="st0" d="M1468.5,1714.8c0-9.1-3.5-17.6-9.8-23.9c-6.4-6.4-14.9-9.9-23.9-9.9c-9,0-17.5,3.5-23.9,9.9l-65.2,65.2
				c-6.3,6.3-9.8,14.8-9.8,23.9c0,9.1,3.5,17.6,9.8,23.9c13.2,13.2,34.6,13.2,47.8,0l65.2-65.2
				C1465,1732.4,1468.5,1723.9,1468.5,1714.8z"/>
		</g>
		<g>
			<path class="st0" d="M1467.3,1324.7c-1.3-5.6-4.8-10.4-9.6-13.4l-118.2-73l-199,322.3l118.2,73c10.1,6.2,23.4,3.1,29.7-7
				l176.4-285.6C1467.7,1336.1,1468.6,1330.3,1467.3,1324.7z"/>
		</g>
		<g>
			<path class="st0" d="M1965.3,1290.6c-4.7,3.2-7.9,8.1-9,13.8c-1.1,5.7,0.1,11.4,3.4,16.1l205.7,301.2c5.6,8.1,16.2,11.5,25.4,8
				l5.3-2.8l128.1-87.5l-230-336.7L1965.3,1290.6z"/>
		</g>
		<g>
			<path class="st0" d="M2140,1639.1l-205.7-301.2c-3.2-4.6-5.5-9.7-7.1-15c-88.7-43.3-166.8,0.6-183.3,11.1l0,0.1l-1.8,1.1
				c-0.2,0.1-0.4,0.3-0.6,0.4c-0.5,0.4-1.1,0.7-1.7,1l-0.8,0.5c-0.5,0.3-1,0.6-1.4,0.9l-0.6,0.4l-218.8,126.3
				c-16.5,9.5-26.7,27.4-26.7,46.6c0,9.3,2.5,18.5,7.1,26.6c7.1,12.3,18.7,21.2,32.6,24.9c13.9,3.7,28.3,1.8,40.6-5.3l209.5-121
				l2.6-0.5c0.5,0,1.1-0.1,1.6-0.1l1.6-0.2l1.5,0.6c0.6,0.3,1.3,0.5,1.9,0.7l0.9,0.3l0.8,0.5l310.4,213.1c6.7,4.8,12.5,10.5,17.2,17
				l31.4-16.9C2146.9,1647.6,2143.1,1643.6,2140,1639.1z"/>
		</g>
		<g>
			<path class="st0" d="M2084.9,1675.9l-300.1-206l-197.6,114.1c-19.2,11.1-42.4,14.1-63.9,8.3c-21.8-5.8-40-19.8-51.2-39.2
				c-7.4-12.7-11.2-27.2-11.2-41.9c0-30.1,16.1-58.2,42.1-73.2l190.9-110.2c-91.8-24.4-168.6-3-195.4,6.4
				c-0.7,8.1-3.3,15.9-7.6,22.8l-176.4,285.6c-4.7,7.6-11.3,13.8-19.1,18.1l59.6,42.6l34.2-34.2c12.2-12.2,28.4-18.9,45.6-18.9
				c0,0,0,0,0,0c17.3,0,33.5,6.7,45.6,18.9c9,9,15.1,20.4,17.5,32.9c29.6-18.8,69.4-15.1,94.7,10.3c13.2,13.2,20.9,30.4,22.1,49
				c10.3-4.8,21.6-7.3,33.1-7.3c21.1,0,40.8,8.2,55.7,23c14.8,14.8,23,34.6,23,55.7c0,9.1-1.5,17.9-4.6,26.4
				c13,1.6,25,7.5,34.4,16.8c11.2,11.2,17.3,26.1,17.3,41.9c0,15.8-6.2,30.7-17.3,41.9l-17.7,17.7l28.3,20.2
				c7.1,5,15.4,7.7,24.1,7.7c13.6,0,26.3-6.5,34.1-17.4c13.2-18.5,9.1-44.4-9.2-57.9l-4.6-3.4l0.2-0.2l-17-13.9
				c-3.2-2.6-5.2-6.3-5.6-10.4c-0.4-4.1,0.8-8.1,3.4-11.3c5.3-6.6,15-7.5,21.6-2.2l20.6,16.8l47.9,34.2c7.7,5.5,16.7,8.4,26.1,8.4
				c14.7,0,28.4-7,36.9-18.8c14.5-20.3,9.8-48.5-10.5-63l-102.9-69.4c-7-4.7-8.9-14.3-4.1-21.3c4.7-7,14.3-8.9,21.3-4.1l103.5,69.9
				l9.4,6.7c7.7,5.5,16.7,8.4,26.2,8.4c14.7,0,28.4-7,36.9-18.8c7-9.8,9.7-21.7,7.7-33.7c-2-11.9-8.5-22.4-18.2-29.3l-142.5-97.6
				c-3.4-2.3-5.7-5.8-6.4-9.9c-0.8-4,0.1-8.1,2.4-11.5c2.3-3.4,5.8-5.7,9.9-6.4c4-0.7,8.1,0.1,11.5,2.4l141.4,96.9h4l0,2.7
				c7.1,4.4,15.3,6.7,23.7,6.7c14.7,0,28.4-7.1,36.9-18.9l0,0c9.2-12.8,10.9-29.9,4.5-44.5
				C2096.7,1687.1,2091.5,1680.7,2084.9,1675.9z"/>
		</g>
	</g>
	<g>
		<path class="st0" d="M4264.1,3149.4c-102.1-68.2-102.1-163.3-14.8-250.3c27.7-27.7,74.2-72.7,66.7-92.7
			c-24.4-64.4-61.6-129.8-111.1-176.6c-21.1-19.9-87.1-3-128.3,10.7c-94.5,31.2-165.9,12.1-200.2-58.8
			c80.9-116.7,128.1-258,128.1-410.4V1028c0-398.6-324.4-723-723-723H1386.9c-398.8,0-723,324.4-723,723v1143.2
			c0,398.6,324.2,723,723,723h1747.4c9,18,25.7,35.8,52.9,53.9c112.1,75.2,117.3,177.8,11.5,261.9c-92.1,73.3-45.5,129.1-2.6,196.6
			c42.1,66.3,83.6,121.7,160.2,61.1c129.8-53.6,219.9-10.8,243.3,119.5c16.6,91.9,65.3,114.4,148.8,105.3
			c77-8.4,153.9,3.5,160.6-115.8c2.1-35.3,9-65.2,20.1-89.5c13.3-28.9,32.7-49.7,57.3-62c36-18,83.3-17,138.5,4.7
			c111.3,44,138.2-21.2,180.6-96.2C4350.7,3253.4,4343.8,3202.5,4264.1,3149.4z M1386.9,2744.6c-316.2,0-573.4-257.3-573.4-573.4
			V1028c0-316.1,257.2-573.4,573.4-573.4h1894.7c316.1,0,573.4,257.3,573.4,573.4v1143.2c0,88.1-20.1,171.8-55.7,246.4
			c-18.9-8.2-43.4-10.5-74.7-6.5c-81.1,10.5-171.1-13.5-178.5,119.4c-4,72.3-29.8,121-72.5,143.7c-23.6,12.5-52.1,17-84.9,13.3
			c-19.6-2.2-40.6-7.4-63-15.5c-88.8-32.3-125,2.9-160.4,72.4H1386.9z M3821.1,3256.2c-6.7,3.4-13.7,6.4-20.9,9
			c-23.2,8.4-46.7,12.7-70.2,13.2c-97.1,2.4-189.7-59.3-223.6-158.3c-19.4-57.1-16.6-115.4,4.4-165.7c12-29.2,30.2-55.7,53.5-77.7
			c23.4-22.1,52.1-39.5,85.1-50.4c118.5-39.4,257.2,30.5,294.4,148.7C3977.6,3082.9,3921.6,3207.2,3821.1,3256.2z"/>
	</g>
	<g>
		<g>
			<rect x="2640.4" y="851.6" class="st0" width="997.2" height="99.7"/>
		</g>
		<g>
			<rect x="2640.4" y="1200.7" class="st0" width="997.2" height="99.7"/>
		</g>
		<g>
			<rect x="2640.4" y="1549.7" class="st0" width="997.2" height="99.7"/>
		</g>
		<g>
			<rect x="2640.4" y="1898.7" class="st0" width="997.2" height="99.7"/>
		</g>
		<g>
			<rect x="2640.4" y="2247.8" class="st0" width="997.2" height="99.7"/>
		</g>
	</g>
</g>
</svg>
